<?xml version="1.0" encoding="utf-8"?>
<!-- Uploaded to: SVG Repo, www.svgrepo.com, Generator: SVG Repo Mixer Tools -->
<svg fill="#000000" width="800px" height="800px" viewBox="0 0 32 32" version="1.1" xmlns="http://www.w3.org/2000/svg">
<title>mastercard</title>
<path d="M16 8.73c-0.12 0.094-0.236 0.187-0.349 0.288-1.955 1.705-3.184 4.2-3.184 6.982s1.228 5.277 3.172 6.973l0.011 0.009c0.112 0.1 0.231 0.197 0.349 0.29 0.12-0.092 0.236-0.19 0.349-0.29 1.955-1.705 3.183-4.2 3.183-6.982s-1.228-5.277-3.172-6.973l-0.011-0.009c-0.112-0.1-0.23-0.195-0.349-0.288zM21.721 6.745c-0.005 0-0.011-0-0.018-0-1.903 0-3.67 0.577-5.138 1.566l0.033-0.021c0.075 0.059 0.143 0.121 0.205 0.186l0.001 0.001c2.116 1.836 3.446 4.528 3.446 7.531 0 2.996-1.323 5.682-3.417 7.507l-0.012 0.010c-0.072 0.061-0.15 0.122-0.226 0.182 1.441 0.97 3.216 1.549 5.125 1.549 5.112 0 9.256-4.144 9.256-9.256s-4.143-9.255-9.255-9.256h-0zM15.18 23.526c0.072 0.061 0.15 0.122 0.226 0.182-1.44 0.969-3.214 1.547-5.123 1.547-5.112 0-9.255-4.144-9.255-9.255s4.144-9.255 9.255-9.255c1.907 0 3.68 0.577 5.153 1.566l-0.033-0.021c-0.075 0.059-0.143 0.121-0.205 0.186l-0.001 0.001c-2.116 1.836-3.446 4.528-3.446 7.531 0 2.996 1.323 5.682 3.417 7.507l0.012 0.010z"></path>
</svg>