<svg xmlns="http://www.w3.org/2000/svg" viewBox="0 0 48 48">
  <path d="M18.5 25h-9C7.57 25 6 23.43 6 21.5v-9C6 10.57 7.57 9 9.5 9h9c1.93 0 3.5 1.57 3.5 3.5v9C22 23.43 20.43 25 18.5 25zM9.5 12C9.225 12 9 12.225 9 12.5v9C9 21.775 9.225 22 9.5 22h9c.275 0 .5-.225.5-.5v-9c0-.275-.225-.5-.5-.5H9.5zM18.5 43h-9C7.57 43 6 41.43 6 39.5v-9C6 28.57 7.57 27 9.5 27h9c1.93 0 3.5 1.57 3.5 3.5v9C22 41.43 20.43 43 18.5 43zM9.5 30C9.225 30 9 30.225 9 30.5v9C9 39.775 9.225 40 9.5 40h9c.275 0 .5-.225.5-.5v-9c0-.275-.225-.5-.5-.5H9.5zM36.5 43h-9c-1.93 0-3.5-1.57-3.5-3.5v-9c0-1.93 1.57-3.5 3.5-3.5h9c1.93 0 3.5 1.57 3.5 3.5v9C40 41.43 38.43 43 36.5 43zM27.5 30c-.275 0-.5.225-.5.5v9c0 .275.225.5.5.5h9c.275 0 .5-.225.5-.5v-9c0-.275-.225-.5-.5-.5H27.5zM34 24.862c-.896 0-1.792-.341-2.475-1.023l-6.364-6.364c-1.364-1.364-1.364-3.585 0-4.949l6.364-6.364c1.365-1.365 3.584-1.365 4.949 0l6.364 6.364c1.364 1.364 1.364 3.585 0 4.949l-6.364 6.364C35.792 24.521 34.896 24.862 34 24.862zM34 8.136c-.128 0-.256.049-.354.146l-6.364 6.364c-.194.195-.194.512 0 .707l6.364 6.364c.195.195.512.195.707 0l6.364-6.364c.194-.195.194-.512 0-.707l-6.364-6.364C34.256 8.185 34.128 8.136 34 8.136z" fill="#EB9C57" />
</svg>