<!DOCTYPE svg PUBLIC "-//W3C//DTD SVG 1.1//EN" "http://www.w3.org/Graphics/SVG/1.1/DTD/svg11.dtd">
<!-- Uploaded to: SVG Repo, www.svgrepo.com, Transformed by: SVG Repo Mixer Tools -->
<svg fill="#000000" width="800px" height="800px" viewBox="0 0 24.00 24.00" id="up-trend" data-name="Flat Color" xmlns="http://www.w3.org/2000/svg" class="icon flat-color" stroke="#000000" stroke-width="0.00024000000000000003">
<g id="SVGRepo_bgCarrier" stroke-width="0"/>
<g id="SVGRepo_tracerCarrier" stroke-linecap="round" stroke-linejoin="round"/>
<g id="SVGRepo_iconCarrier">
<path id="primary" d="M21,5H17a1,1,0,0,0,0,2h1.59L14,11.59l-2.29-2.3a1,1,0,0,0-1.42,0l-8,8a1,1,0,0,0,0,1.42,1,1,0,0,0,1.42,0L11,11.41l2.29,2.3a1,1,0,0,0,1.42,0L20,8.41V10a1,1,0,0,0,2,0V6A1,1,0,0,0,21,5Z" style="fill: #1a201a;"/>
</g>
</svg>